<?xml version="1.0" encoding="UTF-8"?>
<svg width="226px" height="32px" viewBox="0 0 226 32" version="1.1" xmlns="http://www.w3.org/2000/svg" xmlns:xlink="http://www.w3.org/1999/xlink">
    <!-- Generator: Sketch 48.2 (47327) - http://www.bohemiancoding.com/sketch -->
    <title>Group 17</title>
    <desc>Created with Sketch.</desc>
    <defs>
        <polygon id="path-1" points="0 0.0272 23.9761293 0.0272 23.9761293 32 0 32"></polygon>
    </defs>
    <g id="3-search-school-photo-copy" stroke="none" stroke-width="1" fill="none" fill-rule="evenodd" transform="translate(-24.000000, -16.000000)">
        <g id="Header" transform="translate(0.000000, -305.000000)">
            <g id="Group-17" transform="translate(24.000000, 320.000000)">
                <g id="Group-6">
                    <g id="logo" transform="translate(0.000000, 1.000000)">
                        <g id="Group-3">
                            <mask id="mask-2" fill="white">
                                <use xlink:href="#path-1"></use>
                            </mask>
                            <g id="Clip-2"></g>
                            <path d="M17.4858539,21.5931187 C15.2090874,25.2857366 12.980824,28.348826 12.8868359,28.4775415 L11.9880575,29.7106472 L11.0895665,28.4778667 C10.9951473,28.3480455 8.74971018,25.257639 6.49026108,21.5931187 C3.3756503,16.5410211 1.79639281,12.935948 1.79639281,10.8781268 C1.79639281,5.79149268 6.36832096,1.65321626 11.9880575,1.65321626 C17.607794,1.65321626 22.1797222,5.79149268 22.1797222,10.8781268 C22.1797222,12.9362081 20.6005365,16.5411512 17.4858539,21.5931187 M11.9880575,0.0272 C5.37785389,0.0272 -1.43712575e-05,4.89490732 -1.43712575e-05,10.8781268 C-1.43712575e-05,13.2824846 1.56386587,16.9390049 4.92163832,22.3855089 C7.21291976,26.1017366 9.49363832,29.2407935 9.58985389,29.3730211 L11.238309,31.6346797 C11.4045126,31.8627772 11.6861174,32.000013 11.9880575,32.000013 C12.2899976,32.000013 12.5716024,31.8627772 12.737806,31.6346797 L14.3861892,29.3731512 C14.4814707,29.2423545 16.7455904,26.1305496 19.0544766,22.3855089 C22.412321,16.9393301 23.9761293,13.2827447 23.9761293,10.8781268 C23.9761293,4.89490732 18.5982611,0.0272 11.9880575,0.0272" id="Fill-1" fill="#FFFFFF" mask="url(#mask-2)"></path>
                        </g>
                        <path d="M13.0109578,12.6674985 C12.7306503,12.8367952 12.3716248,12.9300437 12.0001115,12.9300437 C11.6285982,12.9300437 11.269647,12.8367952 10.9893395,12.6674985 L6.41306516,9.90385721 C6.41306516,9.90385721 6,9.65456005 6,10.2193213 L6,12.7846814 L6,12.9790102 C6,14.4327801 8.68629868,16 12.0000372,16 C15.3137013,16 18,14.4328533 18,12.9790102 L18,12.7846814 L18,10.0637119 C18,9.61035116 17.706387,9.83190797 17.706387,9.83190797 L13.0109578,12.6674985 Z" id="Fill-4" fill="#FFFFFF"></path>
                        <path d="M18.7488436,7.55320057 C19.0837188,7.35870043 19.0837188,7.04043356 18.7488436,6.84586638 L12.1088993,3.70148095 C11.7739534,3.50691376 11.2259758,3.50691376 10.8910299,3.70148095 L4.25115637,6.84586638 C3.91628121,7.04036652 3.91628121,7.35870043 4.25115637,7.55320057 L10.8910299,11.4096804 C11.2259758,11.6041806 11.7739534,11.6041806 12.1088993,11.4096804" id="Fill-6" fill="#FFFFFF"></path>
                        <path d="M19.4112716,9.04639494 C19.4112716,9.04639494 19.4152809,8.83262196 19.2526311,8.90316918 C19.1220557,8.95979166 18.8021322,9.09882581 18.6895075,9.17526972 C18.5592966,9.26343598 18.5887284,9.46136603 18.5887284,9.46136603 L18.5887284,13.5595697 C18.5887284,13.6177551 18.5245797,13.6454625 18.4940544,13.6595293 C18.1985512,13.7949402 18,14.0448748 18,14.3313974 C18,14.7620693 18.4476742,15.1111111 18.9999544,15.1111111 C19.5523258,15.1111111 20,14.7620693 20,14.3313974 C20,14.0438092 19.7998998,13.793093 19.5025741,13.6579663 C19.4730512,13.6445389 19.4112716,13.6176841 19.4112716,13.5595697 L19.4112716,9.04639494 Z" id="Fill-8" fill="#FFFFFF"></path>
                    </g>
                    <text id="School-Finder" font-family="Exo-Regular, Exo" font-size="16" font-weight="normal" line-spacing="14" fill="#FFFFFF">
                        <tspan x="34" y="16">School </tspan>
                        <tspan x="86.576" y="16" font-family="Exo-Bold, Exo" font-weight="bold">Finder </tspan>
                    </text>
                </g>
                <text id="Find-the-right-schoo" font-family="Lato-Regular, Lato" font-size="10" font-weight="normal" letter-spacing="-0.361363679" fill="#FFFFFF" fill-opacity="0.5">
                    <tspan x="34.1477283" y="31">Find the right school and  Create a better future</tspan>
                </text>
            </g>
        </g>
    </g>
</svg>