<?xml version="1.0" encoding="UTF-8"?>
<svg width="57px" height="50px" viewBox="0 0 57 50" version="1.1" xmlns="http://www.w3.org/2000/svg" xmlns:xlink="http://www.w3.org/1999/xlink">
    <!-- Generator: Sketch 48.2 (47327) - http://www.bohemiancoding.com/sketch -->
    <title>Page 1</title>
    <desc>Created with Sketch.</desc>
    <defs>
        <polygon id="path-1" points="0 0 57 0 57 50 0 50"></polygon>
    </defs>
    <g id="1-homepage-copy" stroke="none" stroke-width="1" fill="none" fill-rule="evenodd" transform="translate(-595.000000, -619.000000)">
        <g id="Group-5" transform="translate(154.000000, 599.000000)">
            <g id="Group-2-Copy">
                <g id="Page-1" transform="translate(441.000000, 20.000000)">
                    <mask id="mask-2" fill="white">
                        <use xlink:href="#path-1"></use>
                    </mask>
                    <g id="Clip-2"></g>
                    <path d="M46.3126248,17.8571176 L37.9564169,17.8571176 L36.1362644,21.428706 L43.7450985,21.428706 L47.5895744,32.9942364 L46.3614943,34.3545891 C47.6696922,35.5395834 48.3477559,36.6317756 48.3515151,36.6355442 L48.7271991,36.4090739 L52.0566661,46.4284116 L4.94016212,46.4284116 L8.50986478,35.7039893 C8.63509277,35.7912563 8.73224432,35.8748725 8.8714518,35.9616685 L10.7643211,32.941358 C10.3397676,32.6726085 9.99180769,32.4076277 9.68555123,32.1603122 L13.2553714,21.4285883 L20.8671423,21.4285883 C20.1121327,19.9495241 19.517241,18.7814886 19.0476947,17.8569999 L10.6876101,17.8569999 L0,50 L57,50 L46.3126248,17.8571176 Z M33.8439813,8.92855881 C33.8439813,5.97090157 31.4502,3.57123509 28.5001762,3.57123509 C25.5499175,3.57123509 23.1562537,5.97090157 23.1562537,8.92855881 C23.1562537,11.8858627 25.5499175,14.2855292 28.5001762,14.2855292 C31.4502,14.2855292 33.8439813,11.8858627 33.8439813,8.92855881 Z M37.406518,8.92855881 C37.406518,10.3864245 37.0579707,11.7676224 36.4388792,12.981588 L28.5001762,28.5711762 C28.5001762,28.5711762 20.4985068,12.8520418 20.4672586,12.7862087 C19.9069044,11.6212352 19.5941869,10.3097567 19.5941869,8.92855881 C19.5941869,3.99697097 23.5809246,0 28.5001762,0 C33.4189579,0 37.406518,3.99697097 37.406518,8.92855881 Z M27.5607313,31.1837695 C27.160965,31.4349713 26.7675424,31.6646214 26.3811682,31.8811991 L28.1139195,34.9998469 C28.5488107,34.7545335 28.9939222,34.4974432 29.4390337,34.2182123 C30.0516641,33.8379354 30.650315,33.4993487 31.2380408,33.1990371 L29.6199447,30.0189137 C28.9524537,30.3607979 28.2631123,30.7479055 27.5607313,31.1837695 Z M33.2798679,28.4980415 L34.3451282,31.9020442 C35.4334135,31.5600423 36.509129,31.3441712 37.5451381,31.2605551 L37.2606145,27.7028634 C35.9591126,27.8077959 34.619784,28.0764275 33.2798679,28.4980415 Z M40.7109629,31.4275519 C41.7379264,31.6305861 42.7396329,31.982834 43.6892981,32.4742851 L45.3253677,29.300639 C44.0725004,28.6552635 42.7539648,28.1914881 41.4003042,27.9260362 L40.7109629,31.4275519 Z M12.6602447,37.6606078 C13.9648009,38.0371162 15.3393719,38.2394438 16.7446039,38.2602889 L16.8005218,34.6892894 C15.70789,34.6711529 14.6468588,34.5184062 13.6449174,34.2292826 L12.6602447,37.6606078 Z M23.2608061,33.3805196 L24.5826311,36.6944288 C23.3025096,37.2071962 22.0259124,37.5979546 20.7803286,37.8591668 L20.0530429,34.3650706 C21.0969228,34.1444888 22.1753402,33.8136749 23.2608061,33.3805196 Z" id="Fill-1" fill="#FFFFFF" mask="url(#mask-2)"></path>
                </g>
            </g>
        </g>
    </g>
</svg>