<?xml version="1.0" encoding="UTF-8"?>
<svg width="24px" height="19px" viewBox="0 0 24 19" version="1.1" xmlns="http://www.w3.org/2000/svg" xmlns:xlink="http://www.w3.org/1999/xlink">
    <!-- Generator: Sketch 48.2 (47327) - http://www.bohemiancoding.com/sketch -->
    <title>icon-compare</title>
    <desc>Created with Sketch.</desc>
    <defs></defs>
    <g id="1-homepage-copy" stroke="none" stroke-width="1" fill="none" fill-rule="evenodd" transform="translate(-1231.000000, -14.000000)">
        <g id="menu" transform="translate(1124.000000, 11.000000)" fill="#FFFFFF" fill-rule="nonzero">
            <g id="Group-12" transform="translate(93.000000, 0.000000)">
                <g id="compare">
                    <g id="icon-compare" transform="translate(14.000000, 3.000000)">
                        <path d="M23.8997427,9.62245614 L19.8641404,2.89595322 L23.4858947,1.88991813 C23.8593684,1.78619883 24.0779415,1.39939181 23.974269,1.02596491 C23.8705029,0.652538012 23.4836023,0.433871345 23.110269,0.537637427 L18.6082339,1.78816374 C18.6080156,1.78822612 16.6469864,2.33294347 12.7251462,3.42231579 L12.7251462,1.70194152 C12.7251462,1.31438596 12.4109474,1.00018713 12.0233918,1.00018713 C11.6358363,1.00018713 11.3216374,1.31438596 11.3216374,1.70194152 L11.3216374,3.81216374 L5.07869006,5.54624561 C5.07847173,5.54630799 3.57253801,5.96460039 0.560888889,6.80112281 C0.187415205,6.90484211 -0.0311578947,7.29164912 0.0725146199,7.66507602 C0.158830409,7.97567251 0.440888889,8.17918129 0.74825731,8.17918129 C0.810432749,8.17918129 0.873684211,8.1708538 0.936467836,8.15340351 L3.75218713,7.37127485 L0.147040936,13.3805848 C0.0816374269,13.4896374 0.0470175439,13.6144561 0.0470175439,13.741614 C0.0470175439,16.6152047 2.38493567,18.9530292 5.2585731,18.9530292 C8.13230409,18.9530292 10.4701754,16.6152047 10.4701754,13.741614 C10.4701754,13.6144561 10.4356023,13.4896374 10.370152,13.3805848 L6.33450292,6.65403509 L17.281731,3.61323977 L13.6765848,9.62245614 C13.6111813,9.73150877 13.5765614,9.85632749 13.5765614,9.98348538 C13.5765614,12.8571228 15.9144795,15.1949474 18.788117,15.1949474 C20.1801637,15.1949474 21.4888889,14.6528655 22.4733099,13.6684912 C23.4576842,12.684117 23.9997661,11.3754386 23.9996725,9.98339181 C23.9997661,9.8562807 23.965193,9.73146199 23.8997427,9.62245614 Z M5.2585731,17.5495673 C3.39859649,17.5495673 1.84650292,16.2088421 1.51607018,14.4433216 L9.00107602,14.4433216 C8.67069006,16.2088421 7.11859649,17.5495673 5.2585731,17.5495673 Z M8.52912281,13.0398129 L1.98811696,13.0398129 L5.2585731,7.5885848 L8.52912281,13.0398129 Z M18.788117,3.83050292 L22.0587135,9.28168421 L15.517614,9.28168421 L18.788117,3.83050292 Z M18.7882105,13.7914854 C16.9282339,13.7914854 15.3760936,12.4507602 15.045614,10.6852398 L22.5307602,10.6852398 C22.2002807,12.4507602 20.6482339,13.7914854 18.7882105,13.7914854 Z" id="Shape"></path>
                    </g>
                </g>
            </g>
        </g>
    </g>
</svg>