<?xml version="1.0" encoding="UTF-8"?>
<svg width="48px" height="48px" viewBox="0 0 48 48" version="1.1" xmlns="http://www.w3.org/2000/svg" xmlns:xlink="http://www.w3.org/1999/xlink">
    <!-- Generator: Sketch 48.2 (47327) - http://www.bohemiancoding.com/sketch -->
    <title>market</title>
    <desc>Created with Sketch.</desc>
    <defs></defs>
    <g id="Page-1" stroke="none" stroke-width="1" fill="none" fill-rule="evenodd">
        <g id="market" fill="#FFFFFF" fill-rule="nonzero">
            <path d="M44,0 L4,0 C1.7944,0 0,1.7944 0,4 L0,28.8 L0,32 C0,34.2056 1.7944,36 4,36 L17.4416,36 L16.1328,43.2 L12.9896,43.2 C12.0744,43.2 11.252,43.708 10.8424,44.5264 C10.468,45.276 10.5072,46.1488 10.9472,46.8616 C11.3872,47.5744 12.1512,48 12.9888,48 L35.0104,48 C35.848,48 36.6112,47.5744 37.052,46.8616 C37.4928,46.1488 37.532,45.276 37.1568,44.5264 C36.7488,43.708 35.9264,43.2 35.0112,43.2 L31.868,43.2 L30.5592,36 L44,36 C46.2056,36 48,34.2056 48,32 L48,28.8 L48,4 C48,1.7944 46.2056,0 44,0 Z M31.2,44.8 L35.0112,44.8 C35.316,44.8 35.5904,44.9696 35.7272,45.2424 C35.9072,45.6024 35.7624,45.9064 35.6928,46.0208 C35.6208,46.1344 35.4136,46.4 35.0112,46.4 L12.9888,46.4 C12.5864,46.4 12.3784,46.1344 12.308,46.02 C12.2376,45.9056 12.0928,45.6024 12.2736,45.2416 C12.4096,44.9696 12.684,44.8 12.9888,44.8 L16.8,44.8 L23.2,44.8 C23.6416,44.8 24,44.4416 24,44 C24,43.5584 23.6416,43.2 23.2,43.2 L17.7584,43.2 L19.0672,36 L28.932,36 L30.2416,43.2 L28,43.2 C27.5584,43.2 27.2,43.5584 27.2,44 C27.2,44.4416 27.5584,44.8 28,44.8 L31.2,44.8 Z M46.4,32 C46.4,33.3232 45.3232,34.4 44,34.4 L29.6,34.4 L18.4,34.4 L4,34.4 C2.6768,34.4 1.6,33.3232 1.6,32 L1.6,29.6 L46.4,29.6 L46.4,32 Z M46.4,28 L1.6,28 L1.6,4 C1.6,2.6768 2.6768,1.6 4,1.6 L44,1.6 C45.3232,1.6 46.4,2.6768 46.4,4 L46.4,28 Z" id="Shape"></path>
            <path d="M21.6,16 L13.6,16 L13.6,8 C13.6,7.5584 13.2416,7.2 12.8,7.2 C7.5064,7.2 3.2,11.5064 3.2,16.8 C3.2,22.0936 7.5064,26.4 12.8,26.4 C18.0936,26.4 22.4,22.0936 22.4,16.8 C22.4,16.3584 22.0416,16 21.6,16 Z M12.8,24.8 C8.3888,24.8 4.8,21.2112 4.8,16.8 C4.8,12.6592 7.9632,9.2424 12,8.84 L12,16.8 C12,17.2416 12.3584,17.6 12.8,17.6 L20.76,17.6 C20.3576,21.6368 16.9408,24.8 12.8,24.8 Z" id="Shape"></path>
            <path d="M16,4 C15.5584,4 15.2,4.3584 15.2,4.8 L15.2,13.6 C15.2,14.0416 15.5584,14.4 16,14.4 L24.8,14.4 C25.2416,14.4 25.6,14.0416 25.6,13.6 C25.6,8.3064 21.2936,4 16,4 Z M16.8,12.8 L16.8,5.64 C20.5736,6.016 23.584,9.0264 23.96,12.8 L16.8,12.8 Z" id="Shape"></path>
            <path d="M44,3.2 L28,3.2 C27.5584,3.2 27.2,3.5584 27.2,4 L27.2,25.6 C27.2,26.0416 27.5584,26.4 28,26.4 L44,26.4 C44.4416,26.4 44.8,26.0416 44.8,25.6 L44.8,4 C44.8,3.5584 44.4416,3.2 44,3.2 Z M43.2,24.8 L28.8,24.8 L28.8,4.8 L43.2,4.8 L43.2,24.8 Z" id="Shape"></path>
            <path d="M36,7.2 L31.2,7.2 C30.7584,7.2 30.4,7.5584 30.4,8 C30.4,8.4416 30.7584,8.8 31.2,8.8 L36,8.8 C36.4416,8.8 36.8,8.4416 36.8,8 C36.8,7.5584 36.4416,7.2 36,7.2 Z" id="Shape"></path>
            <path d="M40.8,10.4 L31.2,10.4 C30.7584,10.4 30.4,10.7584 30.4,11.2 C30.4,11.6416 30.7584,12 31.2,12 L40.8,12 C41.2416,12 41.6,11.6416 41.6,11.2 C41.6,10.7584 41.2416,10.4 40.8,10.4 Z" id="Shape"></path>
            <path d="M36,13.6 L31.2,13.6 C30.7584,13.6 30.4,13.9584 30.4,14.4 C30.4,14.8416 30.7584,15.2 31.2,15.2 L36,15.2 C36.4416,15.2 36.8,14.8416 36.8,14.4 C36.8,13.9584 36.4416,13.6 36,13.6 Z" id="Shape"></path>
            <path d="M40.8,16.8 L31.2,16.8 C30.7584,16.8 30.4,17.1584 30.4,17.6 C30.4,18.0416 30.7584,18.4 31.2,18.4 L40.8,18.4 C41.2416,18.4 41.6,18.0416 41.6,17.6 C41.6,17.1584 41.2416,16.8 40.8,16.8 Z" id="Shape"></path>
            <path d="M36,20 L31.2,20 C30.7584,20 30.4,20.3584 30.4,20.8 C30.4,21.2416 30.7584,21.6 31.2,21.6 L36,21.6 C36.4416,21.6 36.8,21.2416 36.8,20.8 C36.8,20.3584 36.4416,20 36,20 Z" id="Shape"></path>
            <path d="M25.6,31.2 L22.4,31.2 C21.9584,31.2 21.6,31.5584 21.6,32 C21.6,32.4416 21.9584,32.8 22.4,32.8 L25.6,32.8 C26.0416,32.8 26.4,32.4416 26.4,32 C26.4,31.5584 26.0416,31.2 25.6,31.2 Z" id="Shape"></path>
        </g>
    </g>
</svg>