<?xml version="1.0" encoding="UTF-8"?>
<svg width="24px" height="24px" viewBox="0 0 24 24" version="1.1" xmlns="http://www.w3.org/2000/svg" xmlns:xlink="http://www.w3.org/1999/xlink">
    <!-- Generator: Sketch 48.2 (47327) - http://www.bohemiancoding.com/sketch -->
    <title>Group 20</title>
    <desc>Created with Sketch.</desc>
    <defs></defs>
    <g id="Page-1" stroke="none" stroke-width="1" fill="none" fill-rule="evenodd">
        <g id="Group-20" fill="#15B2D2">
            <g id="comparison-copy" fill-rule="nonzero">
                <path d="M19.9164522,8.01871345 L16.5534503,2.41329435 L19.5715789,1.57493177 C19.882807,1.48849903 20.0649513,1.16615984 19.9785575,0.85497076 C19.8920858,0.543781676 19.5696686,0.361559454 19.2585575,0.448031189 L15.5068616,1.49013645 C15.5066797,1.49018843 13.8724886,1.94411956 10.6042885,2.85192982 L10.6042885,1.4182846 C10.6042885,1.09532164 10.3424561,0.833489279 10.0194932,0.833489279 C9.69653021,0.833489279 9.43469786,1.09532164 9.43469786,1.4182846 L9.43469786,3.17680312 L4.23224172,4.62187135 C4.23205978,4.62192333 2.97711501,4.97050032 0.467407407,5.66760234 C0.156179337,5.75403509 -0.0259649123,6.07637427 0.0604288499,6.38756335 C0.132358674,6.64639376 0.367407407,6.81598441 0.623547758,6.81598441 C0.675360624,6.81598441 0.728070175,6.80904483 0.780389864,6.79450292 L3.12682261,6.14272904 L0.122534113,11.1504873 C0.0680311891,11.2413645 0.0391812865,11.3453801 0.0391812865,11.451345 C0.0391812865,13.8460039 1.98744639,15.794191 4.38214425,15.794191 C6.77692008,15.794191 8.7251462,13.8460039 8.7251462,11.451345 C8.7251462,11.3453801 8.69633528,11.2413645 8.64179337,11.1504873 L5.27875244,5.54502924 L14.4014425,3.01103314 L11.397154,8.01871345 C11.3426511,8.10959064 11.3138012,8.21360624 11.3138012,8.31957115 C11.3138012,10.714269 13.2620663,12.6624561 15.6567641,12.6624561 C16.8168031,12.6624561 17.9074074,12.2107212 18.7277583,11.3904094 C19.5480702,10.5700975 19.9998051,9.47953216 19.9997271,8.31949318 C19.9998051,8.21356725 19.9709942,8.10955166 19.9164522,8.01871345 Z M4.38214425,14.6246394 C2.83216374,14.6246394 1.53875244,13.5073684 1.26339181,12.0361014 L7.50089669,12.0361014 C7.22557505,13.5073684 5.93216374,14.6246394 4.38214425,14.6246394 Z M7.10760234,10.8665107 L1.65676413,10.8665107 L4.38214425,6.32382066 L7.10760234,10.8665107 Z M15.6567641,3.19208577 L18.3822612,7.73473684 L12.931345,7.73473684 L15.6567641,3.19208577 Z M15.6568421,11.4929045 C14.1068616,11.4929045 12.8134113,10.3756335 12.5380117,8.90436647 L18.7756335,8.90436647 C18.5002339,10.3756335 17.2068616,11.4929045 15.6568421,11.4929045 Z" id="Shape"></path>
            </g>
            <g id="+" transform="translate(12.000000, 12.000000)">
                <path d="M5.94994286,11.1502929 C3.13765714,11.1502929 0.849942857,8.86247143 0.849942857,6.05018571 C0.849942857,3.2379 3.13765714,0.950292857 5.94994286,0.950292857 C8.76222857,0.950292857 11.05005,3.2379 11.05005,6.05018571 C11.05005,8.86247143 8.76233571,11.1502929 5.94994286,11.1502929 M5.94994286,0.100114286 C2.66912143,0.100114286 -2.14285714e-05,2.76915 -2.14285714e-05,6.04997143 C-2.14285714e-05,9.3309 2.66912143,12.0000429 5.94994286,12.0000429 C9.23076429,12.0000429 11.8999071,9.3309 11.8999071,6.04997143 C11.8999071,2.76915 9.23087143,0.100114286 5.94994286,0.100114286" id="Fill-1"></path>
                <polygon id="Fill-4" points="6.42060575 2.63414634 5.57918211 2.63414634 5.57918211 5.57924178 2.63414634 5.57924178 2.63414634 6.42054609 5.57918211 6.42054609 5.57918211 9.36585366 6.42060575 9.36585366 6.42060575 6.42054609 9.36585366 6.42054609 9.36585366 5.57924178 6.42060575 5.57924178"></polygon>
            </g>
        </g>
    </g>
</svg>