<?xml version="1.0" encoding="UTF-8"?>
<svg width="24px" height="24px" viewBox="0 0 24 24" version="1.1" xmlns="http://www.w3.org/2000/svg" xmlns:xlink="http://www.w3.org/1999/xlink">
    <!-- Generator: Sketch 48.2 (47327) - http://www.bohemiancoding.com/sketch -->
    <title>user-profile</title>
    <desc>Created with Sketch.</desc>
    <defs></defs>
    <g id="1-homepage-copy" stroke="none" stroke-width="1" fill="none" fill-rule="evenodd" transform="translate(-1351.000000, -11.000000)">
        <g id="menu" transform="translate(1124.000000, 11.000000)" fill="#FFFFFF">
            <g id="Group-11" transform="translate(187.000000, 0.000000)">
                <g id="user-profile" transform="translate(40.000000, 0.000000)">
                    <g id="user">
                        <path d="M12,0 C5.38461538,0 0,5.38461538 0,12 C0,15.1538462 1.23076923,18.034965 3.23076923,20.1748252 C3.27272727,20.2307692 3.32167832,20.2867133 3.37762238,20.3286713 C5.55944056,22.5874126 8.62237762,24 12,24 C18.6153846,24 24,18.6153846 24,12 C24,5.38461538 18.6153846,0 12,0 Z M4.99300699,20.1118881 C8.25174825,19.048951 9.3986014,17.7552448 9.7972028,16.9160839 C10.3986014,17.1888112 11.0699301,17.3286713 11.8251748,17.3426573 C11.8391608,17.3426573 11.8601399,17.3426573 11.8741259,17.3426573 L11.9020979,17.3426573 L11.9300699,17.3426573 C11.9440559,17.3426573 11.965035,17.3426573 11.979021,17.3426573 C12.7902098,17.3286713 13.5174825,17.1608392 14.1538462,16.8461538 C14.5244755,17.6783217 15.6433566,19.020979 19,20.1118881 C17.1188811,21.7342657 14.6713287,22.7272727 11.993007,22.7272727 C9.32167832,22.7272727 6.87412587,21.7412587 4.99300699,20.1118881 Z M11.9230769,16.0769231 C11.9160839,16.0769231 11.9090909,16.0769231 11.9020979,16.0769231 C11.8951049,16.0769231 11.8881119,16.0769231 11.8811189,16.0769231 C10.7692308,16.0629371 9.92307692,15.7132867 9.29370629,15 C7.6993007,13.2097902 8.04895105,9.7972028 8.04895105,9.76223776 C8.04895105,9.74825175 8.04895105,9.73426573 8.04895105,9.72027972 C8.21678322,6.01398601 10.958042,5.72727273 11.7972028,5.72727273 C11.8321678,5.72727273 11.8671329,5.72727273 11.8811189,5.72727273 C11.8951049,5.72727273 11.9160839,5.72727273 11.9300699,5.72727273 C11.951049,5.72727273 11.979021,5.72727273 12.013986,5.72727273 C12.8461538,5.72727273 15.5874126,6.01398601 15.7622378,9.72027972 C15.7622378,9.73426573 15.7622378,9.74825175 15.7622378,9.76223776 C15.7692308,9.7972028 16.1118881,13.2027972 14.5174825,15 C13.8811189,15.7132867 13.034965,16.0629371 11.9230769,16.0769231 Z M20.027972,19.1048951 C15.3986014,17.7622378 15.2447552,16.1188811 15.2447552,16.1048951 C15.2447552,16.1188811 15.2214452,16.1305361 15.1748252,16.1398601 C15.2727273,16.048951 15.3706294,15.951049 15.4615385,15.8461538 C17.3706294,13.6923077 17.0559441,10 17.020979,9.65034965 C16.8391608,5.81818182 14.2097902,4.45454545 12.006993,4.45454545 C11.965035,4.45454545 11.9230769,4.45454545 11.8951049,4.45454545 C11.8671329,4.45454545 11.8321678,4.45454545 11.7832168,4.45454545 C9.58741259,4.45454545 6.95804196,5.81118881 6.76923077,9.64335664 C6.73426573,9.98601399 6.41258741,13.6853147 8.32867133,15.8391608 C8.44755245,15.972028 8.58041958,16.0979021 8.70629371,16.2167832 C8.6013986,16.5664336 7.91608392,17.9440559 3.95804196,19.0979021 C2.27972028,17.2027972 1.25874126,14.7202797 1.25874126,11.993007 C1.25874126,6.07692308 6.06993007,1.25874126 11.993007,1.25874126 C17.9160839,1.25874126 22.7272727,6.06993007 22.7272727,11.993007 C22.7342657,14.7202797 21.7062937,17.2097902 20.027972,19.1048951 Z" id="Shape" fill-rule="nonzero"></path>
                    </g>
                </g>
            </g>
        </g>
    </g>
</svg>