<?xml version="1.0" encoding="UTF-8"?>
<svg width="46px" height="45px" viewBox="0 0 46 45" version="1.1" xmlns="http://www.w3.org/2000/svg" xmlns:xlink="http://www.w3.org/1999/xlink">
    <!-- Generator: Sketch 48.2 (47327) - http://www.bohemiancoding.com/sketch -->
    <title>Page 1</title>
    <desc>Created with Sketch.</desc>
    <defs>
        <polygon id="path-1" points="0.0001 0.8995 45.879 0.8995 45.879 18 0.0001 18"></polygon>
        <polygon id="path-3" points="0.5242 0.056 27.4572 0.056 27.4572 35.7389 0.5242 35.7389"></polygon>
    </defs>
    <g id="1-homepage-copy" stroke="none" stroke-width="1" fill="none" fill-rule="evenodd" transform="translate(-214.000000, -621.000000)">
        <g id="Group-5" transform="translate(154.000000, 599.000000)">
            <g id="Group-2-Copy">
                <g id="Page-1" transform="translate(60.000000, 21.000000)">
                    <g id="Group-3" transform="translate(0.000000, 27.944000)">
                        <mask id="mask-2" fill="white">
                            <use xlink:href="#path-1"></use>
                        </mask>
                        <g id="Clip-2"></g>
                        <path d="M33.4961,0.8995 C32.7811,2.0525 32.0001,3.2545 31.1541,4.5045 C38.2681,5.5695 41.9121,7.8475 41.9121,8.9815 C41.9121,10.4925 35.4571,14.0315 22.9391,14.0315 C10.4221,14.0315 3.9671,10.4925 3.9671,8.9815 C3.9671,7.8475 7.6091,5.5705 14.7261,4.5045 C13.8791,3.2545 13.0991,2.0525 12.3831,0.8995 C5.3611,2.2235 0.0001,4.9465 0.0001,8.9815 C0.0001,14.9025 11.5411,18.0005 22.9391,18.0005 C34.3391,18.0005 45.8791,14.9025 45.8791,8.9815 C45.8801,4.9465 40.5191,2.2235 33.4961,0.8995" id="Fill-1" fill="#FFFFFF" mask="url(#mask-2)"></path>
                    </g>
                    <g id="Group-6" transform="translate(9.000000, 0.944000)">
                        <mask id="mask-4" fill="white">
                            <use xlink:href="#path-3"></use>
                        </mask>
                        <g id="Clip-5"></g>
                        <path d="M13.9912,21.8819 C9.5962,21.8819 6.0212,18.3069 6.0212,13.9139 C6.0212,9.5199 9.5962,5.9449 13.9912,5.9449 C18.3852,5.9449 21.9592,9.5199 21.9592,13.9139 C21.9592,18.3069 18.3852,21.8819 13.9912,21.8819 M13.9912,0.0559 C6.5532,0.0559 0.5242,6.0849 0.5242,13.5209 C0.5242,18.8559 7.4512,29.0629 11.3692,34.4089 C11.9822,35.2449 12.9552,35.7389 13.9912,35.7389 C15.0252,35.7389 16.0012,35.2449 16.6112,34.4089 C20.5292,29.0629 27.4572,18.8559 27.4572,13.5209 C27.4572,6.0849 21.4282,0.0559 13.9912,0.0559" id="Fill-4" fill="#FFFFFF" mask="url(#mask-4)"></path>
                    </g>
                    <path d="M22.9912,10.011 C20.3182,10.011 18.1442,12.185 18.1442,14.858 C18.1442,17.529 20.3182,19.704 22.9912,19.704 C25.6632,19.704 27.8382,17.53 27.8382,14.858 C27.8382,12.184 25.6632,10.011 22.9912,10.011" id="Fill-7" fill="#FFFFFF"></path>
                </g>
            </g>
        </g>
    </g>
</svg>