<?xml version="1.0" encoding="UTF-8"?>
<svg width="28px" height="28px" viewBox="0 0 28 28" version="1.1" xmlns="http://www.w3.org/2000/svg" xmlns:xlink="http://www.w3.org/1999/xlink">
    <!-- Generator: Sketch 48.2 (47327) - http://www.bohemiancoding.com/sketch -->
    <title>tracker (1)</title>
    <desc>Created with Sketch.</desc>
    <defs></defs>
    <g id="1-homepage-copy" stroke="none" stroke-width="1" fill="none" fill-rule="evenodd" transform="translate(-959.000000, -327.000000)">
        <g id="Header" transform="translate(0.000000, -305.000000)" fill="#000000" fill-rule="nonzero">
            <g id="tracker-(1)" transform="translate(959.000000, 632.000000)">
                <path d="M13.9662174,17.0456087 C15.6641739,17.0456087 17.0456087,15.6641739 17.0456087,13.9662174 C17.0456087,12.2682609 15.6641739,10.8868261 13.9662174,10.8868261 C12.2682609,10.8868261 10.8868261,12.2682609 10.8868261,13.9662174 C10.8868261,15.6641739 12.2682609,17.0456087 13.9662174,17.0456087 Z M13.9662174,12.1042174 C14.9929855,12.1042174 15.8282174,12.9394493 15.8282174,13.9662174 C15.8282174,14.9929855 14.9929855,15.8282174 13.9662174,15.8282174 C12.9394493,15.8282174 12.1042174,14.9929855 12.1042174,13.9662174 C12.1042174,12.9394493 12.9394493,12.1042174 13.9662174,12.1042174 Z" id="Shape"></path>
                <path d="M27.3237391,13.3575217 L24.9117826,13.3575217 C24.605913,7.79627536 20.1361594,3.32652174 14.574913,3.02065217 L14.574913,0.608695652 C14.574913,0.272594203 14.3023188,0 13.9662174,0 C13.6301159,0 13.3575217,0.272594203 13.3575217,0.608695652 L13.3575217,3.61210145 C13.3575217,3.9482029 13.6301159,4.2207971 13.9662174,4.2207971 C19.3398841,4.2207971 23.7116377,8.59255072 23.7116377,13.9662174 C23.7116377,19.3398841 19.3398841,23.7116377 13.9662174,23.7116377 C8.59255072,23.7116377 4.2207971,19.3398841 4.2207971,13.9662174 C4.2207971,10.2346087 6.39708696,6.78188406 9.76510145,5.17015942 C10.0683333,5.02498551 10.1965652,4.6615942 10.0513913,4.35836232 C9.90631884,4.05523188 9.54262319,3.927 9.2395942,4.07207246 C7.40021739,4.95224638 5.84378261,6.32597101 4.73869565,8.04462319 C3.71304348,9.63981159 3.12595652,11.4652899 3.02176812,13.3575217 L0.608695652,13.3575217 C0.272594203,13.3575217 0,13.6301159 0,13.9662174 C0,14.3023188 0.272594203,14.574913 0.608695652,14.574913 L3.02065217,14.574913 C3.32652174,20.1361594 7.79627536,24.605913 13.3575217,24.9117826 L13.3575217,27.3237391 C13.3575217,27.6598406 13.6301159,27.9324348 13.9662174,27.9324348 C14.3023188,27.9324348 14.574913,27.6598406 14.574913,27.3237391 L14.574913,24.9117826 C20.1361594,24.605913 24.605913,20.1361594 24.9117826,14.574913 L27.3237391,14.574913 C27.6598406,14.574913 27.9324348,14.3023188 27.9324348,13.9662174 C27.9324348,13.6301159 27.6598406,13.3575217 27.3237391,13.3575217 Z" id="Shape"></path>
            </g>
        </g>
    </g>
</svg>