<?xml version="1.0" encoding="UTF-8"?>
<svg width="18px" height="24px" viewBox="0 0 18 24" version="1.1" xmlns="http://www.w3.org/2000/svg" xmlns:xlink="http://www.w3.org/1999/xlink">
    <!-- Generator: Sketch 48.2 (47327) - http://www.bohemiancoding.com/sketch -->
    <title>icon-schools</title>
    <desc>Created with Sketch.</desc>
    <defs>
        <polygon id="path-1" points="0 0.0204 17.982097 0.0204 17.982097 24 0 24"></polygon>
    </defs>
    <g id="1-homepage-copy" stroke="none" stroke-width="1" fill="none" fill-rule="evenodd" transform="translate(-1140.000000, -11.000000)">
        <g id="menu" transform="translate(1124.000000, 11.000000)">
            <g id="Group-10">
                <g id="icon-schools" transform="translate(16.000000, 0.000000)">
                    <g id="Group-3">
                        <mask id="mask-2" fill="white">
                            <use xlink:href="#path-1"></use>
                        </mask>
                        <g id="Clip-2"></g>
                        <path d="M13.1143904,16.194839 C11.4068156,18.9643024 9.73561796,21.2616195 9.66512695,21.3581561 L8.99104311,22.2829854 L8.31717485,21.3584 C8.24636048,21.2610341 6.56228263,18.9432293 4.86769581,16.194839 C2.53173772,12.4057659 1.34729461,9.70196098 1.34729461,8.15859512 C1.34729461,4.34361951 4.77624072,1.2399122 8.99104311,1.2399122 C13.2058455,1.2399122 16.6347916,4.34361951 16.6347916,8.15859512 C16.6347916,9.7021561 15.4504024,12.4058634 13.1143904,16.194839 M8.99104311,0.0204 C4.03339042,0.0204 -1.07784431e-05,3.67118049 -1.07784431e-05,8.15859512 C-1.07784431e-05,9.96186341 1.1728994,12.7042537 3.69122874,16.7891317 C5.40968982,19.5763024 7.12022874,21.9305951 7.19239042,22.0297659 L8.42873174,23.7260098 C8.55338443,23.8970829 8.76458802,24.0000098 8.99104311,24.0000098 C9.2174982,24.0000098 9.4287018,23.8970829 9.55335449,23.7260098 L10.7896419,22.0298634 C10.861103,21.9317659 12.5591928,19.5979122 14.2908575,16.7891317 C16.8092407,12.7044976 17.982097,9.96205854 17.982097,8.15859512 C17.982097,3.67118049 13.9486958,0.0204 8.99104311,0.0204" id="Fill-1" fill="#FFFFFF" mask="url(#mask-2)"></path>
                    </g>
                    <path d="M9.75821838,9.50062391 C9.54798776,9.62759639 9.27871863,9.69753281 9.00008362,9.69753281 C8.72144861,9.69753281 8.45223524,9.62759639 8.24200462,9.50062391 L4.80979887,7.42789291 C4.80979887,7.42789291 4.5,7.24092004 4.5,7.664491 L4.5,9.58851104 L4.5,9.73425766 C4.5,10.8245851 6.51472401,12 9.00002787,12 C11.485276,12 13.5,10.82464 13.5,9.73425766 L13.5,9.58851104 L13.5,7.54778391 C13.5,7.20776337 13.2797903,7.37393098 13.2797903,7.37393098 L9.75821838,9.50062391 Z" id="Fill-4" fill="#FFFFFF"></path>
                    <path d="M14.0616327,5.66490043 C14.3127891,5.51902532 14.3127891,5.28032517 14.0616327,5.13439978 L9.08167449,2.77611071 C8.83046503,2.63018532 8.41948188,2.63018532 8.16827241,2.77611071 L3.18836728,5.13439978 C2.93721091,5.28027489 2.93721091,5.51902532 3.18836728,5.66490043 L8.16827241,8.55726034 C8.41948188,8.70313544 8.83046503,8.70313544 9.08167449,8.55726034" id="Fill-6" fill="#FFFFFF"></path>
                    <path d="M14.5584537,10.1696772 L14.5584537,6.78479621 C14.5584537,6.78479621 14.5614607,6.62446647 14.4394733,6.67737688 C14.3415418,6.71984375 14.1015992,6.82411935 14.0171306,6.88145229 C13.9194724,6.94757698 13.9415463,7.09602453 13.9415463,7.09602453 L13.9415463,10.1696772 C13.9415463,10.2133163 13.8934348,10.2340969 13.8705408,10.244647 C13.6489134,10.3462051 13.5,10.5336561 13.5,10.7485481 C13.5,11.071552 13.8357556,11.3333333 14.2499658,11.3333333 C14.6642444,11.3333333 15,11.071552 15,10.7485481 C15,10.5328569 14.8499248,10.3448198 14.6269306,10.2434747 C14.6047884,10.2334042 14.5584537,10.2132631 14.5584537,10.1696772" id="Fill-8" fill="#FFFFFF"></path>
                </g>
            </g>
        </g>
    </g>
</svg>