<?xml version="1.0" encoding="UTF-8"?>
<svg width="54px" height="52px" viewBox="0 0 54 52" version="1.1" xmlns="http://www.w3.org/2000/svg" xmlns:xlink="http://www.w3.org/1999/xlink">
    <!-- Generator: Sketch 48.2 (47327) - http://www.bohemiancoding.com/sketch -->
    <title>Page 1</title>
    <desc>Created with Sketch.</desc>
    <defs>
        <polygon id="path-1" points="0 0 54 0 54 52 0 52"></polygon>
    </defs>
    <g id="1-homepage-copy" stroke="none" stroke-width="1" fill="none" fill-rule="evenodd" transform="translate(-407.000000, -621.000000)">
        <g id="Group-5" transform="translate(154.000000, 599.000000)">
            <g id="Page-1" transform="translate(253.000000, 22.000000)">
                <mask id="mask-2" fill="white">
                    <use xlink:href="#path-1"></use>
                </mask>
                <g id="Clip-2"></g>
                <path d="M50.7444836,22.2555104 L40.4337674,30.7682431 C39.4213917,31.6028247 38.9591101,32.9826664 39.2783386,34.273486 L42.3924942,47.1260432 C42.5575555,47.8827306 42.2603352,48.4057351 42.0623717,48.6505457 C41.7542574,49.0400171 41.2920859,49.2848277 40.8298043,49.2848277 C40.5438082,49.2848277 40.257592,49.195917 39.9494776,48.9843783 L28.670292,41.9738926 C28.1310919,41.6400599 27.5148632,41.4621271 26.8767364,41.4621271 C26.2383895,41.4621271 25.6112668,41.6400599 25.0719567,41.9850203 L13.9028118,49.0066339 C13.1875464,49.4851273 12.2301911,49.2737 11.7240033,48.6060347 C11.5149257,48.3278408 11.294844,47.8493473 11.4929175,47.1482987 L14.6071832,34.2623582 C14.9151875,32.9826664 14.4640201,31.6140638 13.4626485,30.7794821 L3.30587934,22.2888936 C2.50269128,21.5878451 2.72277295,20.6864969 2.81069557,20.4305585 C2.89872824,20.1746202 3.261863,19.317783 4.31836507,19.2621442 L17.4901431,18.3051573 C18.788735,18.2050075 19.9110415,17.3926814 20.4062252,16.1686283 L25.4350914,3.80569227 C25.8422425,2.80419431 26.7555814,2.72630002 27.0196794,2.72630002 C27.2838875,2.72630002 28.1972264,2.80419431 28.6043775,3.80569227 L33.6331337,16.1686283 C34.1283174,17.3926814 35.250734,18.2050075 36.5492158,18.3051573 L49.743112,19.273272 C50.7776059,19.3289108 51.1407407,20.1857479 51.2286633,20.4416863 C51.2946878,20.6753691 51.5147695,21.5767173 50.7444836,22.2555104 M49.8972792,16.5247165 L36.7253912,15.5677295 C36.4502891,15.545474 36.2080892,15.3785577 36.1090525,15.1114915 L31.0911904,2.75968329 C30.3980431,1.05713674 28.8353532,0 27.0086754,0 C25.1819975,0 23.6305317,1.05713674 22.9261604,2.77081104 L17.8972942,15.1337471 C17.7872533,15.3896854 17.5561676,15.5677295 17.2810655,15.589985 L4.1311856,16.546972 C2.34852406,16.6471218 0.829960531,17.8266638 0.246854142,19.5625936 C-0.347476412,21.3207789 0.147707349,23.1679863 1.55623005,24.3809116 L11.7350074,32.8825166 C11.9440849,33.0606719 12.0431217,33.3498823 11.9770972,33.6170597 L8.87394563,46.4583779 C8.51081087,47.7937085 8.76390479,49.1735502 9.56720289,50.2530537 C10.3925092,51.3434624 11.6799869,52 13.0334892,52 C13.8697996,52 14.6841018,51.7440616 15.3553509,51.2878237 L26.4804793,44.2884657 C26.7116751,44.1438048 27.0086754,44.1438048 27.2397611,44.2884657 L38.4749304,51.2655682 C39.1791918,51.7440616 39.993604,52 40.8189103,52 C42.0843799,52 43.3387354,51.3879735 44.1531476,50.3530922 C45.0004621,49.2848277 45.3085764,47.8938583 45.0004621,46.5028889 L41.8861964,33.6280762 C41.8201719,33.3498823 41.9193186,33.0606719 42.1282862,32.8825166 L52.4612307,24.3586561 C53.8476352,23.1568585 54.342819,21.3096512 53.7596025,19.5514659 C53.1873902,17.8155361 51.6579326,16.6248663 49.8972792,16.5247165" id="Fill-1" fill="#FFFFFF" mask="url(#mask-2)"></path>
            </g>
        </g>
    </g>
</svg>